<?xml version="1.0" encoding="UTF-8"?>
<svg id="Layer_2" data-name="Layer 2" xmlns="http://www.w3.org/2000/svg" viewBox="0 0 210.8 102.5">
  <defs>
    <style>
      .cls-1 {
        fill: #ff5901;
      }
    </style>
  </defs>
  <g id="Layer_1-2" data-name="Layer 1">
    <path class="cls-1" d="M101.2,35.3v65.9c0,.3-.2,0-.3,0h-22.2s-.1.2-.3.1l-31-44.3c-7.7-9.1-22.5-5.3-24.5,6.5-2.1,12.8,12.7,21.3,22.7,13,1.7-1.4,3.5-4,5.2-5.2.2-.1.2-.3.5-.2l12.9,18.7c-12.6,15.3-36.1,16.8-51.2,4.1-15.5-13-17.5-36.4-4.4-51.9,11.9-14.1,33-17.2,48.5-6.9,9.6,6.4,14.3,17.4,21.4,26.1v-24.6c0-5.9-6.9-12.6-12.8-12.6H1.3V1.3h65.6c18.1,1.1,33,16,34.3,34.1Z"/>
    <path class="cls-1" d="M176.8,101.2h-65.9c-.3,0,0-.2,0-.3v-22.2s-.2-.1-.1-.3l44.3-31c9.1-7.7,5.3-22.5-6.5-24.5-12.8-2.1-21.3,12.7-13,22.7,1.4,1.7,4,3.5,5.2,5.2.1.2.3.2.2.5l-18.7,12.9c-15.3-12.6-16.8-36.1-4.1-51.2,13-15.5,36.4-17.5,51.9-4.4,14.1,11.9,17.2,33,6.9,48.5-6.4,9.6-17.4,14.3-26.1,21.4h24.6c5.9,0,12.6-6.9,12.6-12.8V1.3h22.7v65.6c-1.1,18.1-16,33-34.1,34.3Z"/>
  </g>
</svg>